<svg id="kity_svg_6" xmlns="http://www.w3.org/2000/svg" xmlns:xlink="http://www.w3.org/1999/xlink" version="1.1" width="1156" height="761" style="background: rgb(251, 251, 251); visibility: visible;" viewBox="0 0 1156 761"><defs id="kity_defs_7"><linearGradient id="kity_linearGradient_17" x1="0" y1="0" x2="0" y2="1"><stop id="kity_stop_18" offset="0" stop-color="rgb(255, 255, 255)"></stop><stop id="kity_stop_19" offset="1" stop-color="rgb(204, 204, 204)"></stop></linearGradient><marker id="kity_marker_2" orient="auto" refX="6" refY="0" viewBox="-7 -7 14 14" markerWidth="7" markerHeight="7" markerUnits="userSpaceOnUse"><path id="kity_path_3" fill="rgb(115, 161, 191)" stroke="none" d="M6,0A6,6,0,1,1,-6,0A6,6,0,1,1,6,0"></path></marker></defs><g id="kity_g_8"><g id="minder1" text-rendering="optimize-speed"><g id="minder_connect_group1"><path id="kity_path_31" fill="none" stroke="rgb(115, 161, 191)" stroke-width="1" d="M578.5,379A195,269.5,0,0,1,773.5,109.5"></path><path id="kity_path_33" fill="none" stroke="rgb(115, 161, 191)" stroke-width="1" d="M899.5,109.5C914.5,109.5,914.5,45.5,929.5,45.5L972.5,45.5"></path><path id="kity_path_35" fill="none" stroke="rgb(115, 161, 191)" stroke-width="1" d="M899.5,109.5C914.5,109.5,914.5,97.5,929.5,97.5L995.5,97.5"></path><path id="kity_path_37" fill="none" stroke="rgb(115, 161, 191)" stroke-width="1" d="M899.5,109.5C914.5,109.5,914.5,149.5,929.5,149.5L983.5,149.5"></path><path id="kity_path_39" fill="none" stroke="rgb(115, 161, 191)" stroke-width="1" d="M899.5,109.5C914.5,109.5,914.5,201.5,929.5,201.5L995.5,201.5"></path><path id="kity_path_41" fill="none" stroke="rgb(115, 161, 191)" stroke-width="1" d="M578.5,379A195,25.5,0,0,1,773.5,353.5"></path><path id="kity_path_43" fill="none" stroke="rgb(115, 161, 191)" stroke-width="1" d="M899.5,353.5C914.5,353.5,914.5,263.5,929.5,263.5L995.5,263.5"></path><path id="kity_path_45" fill="none" stroke="rgb(115, 161, 191)" stroke-width="1" d="M899.5,353.5C914.5,353.5,914.5,315.5,929.5,315.5L983.5,315.5"></path><path id="kity_path_47" fill="none" stroke="rgb(115, 161, 191)" stroke-width="1" d="M899.5,353.5C914.5,353.5,914.5,367.5,929.5,367.5L983.5,367.5"></path><path id="kity_path_49" fill="none" stroke="rgb(115, 161, 191)" stroke-width="1" d="M899.5,353.5C914.5,353.5,914.5,419.5,929.5,419.5L983.5,419.5"></path><path id="kity_path_51" fill="none" stroke="rgb(115, 161, 191)" stroke-width="1" d="M899.5,353.5C914.5,353.5,914.5,471.5,929.5,471.5L1007.5,471.5"></path><path id="kity_path_53" fill="none" stroke="rgb(115, 161, 191)" stroke-width="1" d="M578.5,379A195,270.5,0,0,0,773.5,649.5"></path><path id="kity_path_55" fill="none" stroke="rgb(115, 161, 191)" stroke-width="1" d="M871.5,649.5C886.5,649.5,886.5,585.5,901.5,585.5L967.5,585.5"></path><path id="kity_path_57" fill="none" stroke="rgb(115, 161, 191)" stroke-width="1" d="M967.5,585.5C982.5,585.5,982.5,533.5,997.5,533.5L1099.5,533.5"></path><path id="kity_path_59" fill="none" stroke="rgb(115, 161, 191)" stroke-width="1" d="M967.5,585.5C982.5,585.5,982.5,585.5,997.5,585.5L1099.5,585.5"></path><path id="kity_path_61" fill="none" stroke="rgb(115, 161, 191)" stroke-width="1" d="M967.5,585.5C982.5,585.5,982.5,637.5,997.5,637.5L1136.5,637.5"></path><path id="kity_path_63" fill="none" stroke="rgb(115, 161, 191)" stroke-width="1" d="M871.5,649.5C886.5,649.5,886.5,689.5,901.5,689.5L967.5,689.5"></path><path id="kity_path_65" fill="none" stroke="rgb(115, 161, 191)" stroke-width="1" d="M871.5,649.5C886.5,649.5,886.5,741.5,901.5,741.5L967.5,741.5"></path><path id="kity_path_67" fill="none" stroke="rgb(115, 161, 191)" stroke-width="1" d="M578.5,379A195,166.5,0,0,0,383.5,212.5"></path><path id="kity_path_69" fill="none" stroke="rgb(115, 161, 191)" stroke-width="1" d="M578.5,379A195,1.5,0,0,1,383.5,380.5"></path><path id="kity_path_71" fill="none" stroke="rgb(115, 161, 191)" stroke-width="1" d="M285.5,380.5C270.5,380.5,270.5,342.5,255.5,342.5L153.5,342.5"></path><path id="kity_path_73" fill="none" stroke="rgb(115, 161, 191)" stroke-width="1" d="M153.5,342.5C138.5,342.5,138.5,290.5,123.5,290.5L45.5,290.5"></path><path id="kity_path_75" fill="none" stroke="rgb(115, 161, 191)" stroke-width="1" d="M153.5,342.5C138.5,342.5,138.5,342.5,123.5,342.5L45.5,342.5"></path><path id="kity_path_77" fill="none" stroke="rgb(115, 161, 191)" stroke-width="1" d="M153.5,342.5C138.5,342.5,138.5,394.5,123.5,394.5L45.5,394.5"></path><path id="kity_path_79" fill="none" stroke="rgb(115, 161, 191)" stroke-width="1" d="M285.5,380.5C270.5,380.5,270.5,446.5,255.5,446.5L153.5,446.5"></path><path id="kity_path_81" fill="none" stroke="rgb(115, 161, 191)" stroke-width="1" d="M153.5,446.5C138.5,446.5,138.5,446.5,123.5,446.5L20.5,446.5"></path><path id="kity_path_83" fill="none" stroke="rgb(115, 161, 191)" stroke-width="1" d="M578.5,379A195,167.5,0,0,1,383.5,546.5"></path><path id="kity_path_85" fill="none" stroke="rgb(115, 161, 191)" stroke-width="1" d="M299.5,546.5C284.5,546.5,284.5,508.5,269.5,508.5L191.5,508.5"></path><path id="kity_path_87" fill="none" stroke="rgb(115, 161, 191)" stroke-width="1" d="M299.5,546.5C284.5,546.5,284.5,560.5,269.5,560.5L191.5,560.5"></path><path id="kity_path_89" fill="none" stroke="rgb(115, 161, 191)" stroke-width="1" d="M299.5,546.5C284.5,546.5,284.5,612.5,269.5,612.5L78.5,612.5"></path></g><g id="minder_node1"><path id="node_outline1" fill="rgb(115, 161, 191)" stroke="rgb(57, 80, 96)" d="M506.5,358.5h144a5,5,0,0,1,5,5v31a5,5,0,0,1,-5,5h-144a5,5,0,0,1,-5,-5v-31a5,5,0,0,1,5,-5z" stroke-width="3"></path><g id="node_text1" fill="white"><text id="kity_text_22" text-rendering="inherit" font-size="16" dy=".8em" y="370.5" x="525.5">系统架构师</text></g><g id="kity_g_150" style="cursor: pointer;"><path id="kity_path_151" fill="none" stroke="none" d="M618,370h12a2,2,0,0,1,2,2v13a2,2,0,0,1,-2,2h-12a2,2,0,0,1,-2,-2v-13a2,2,0,0,1,2,-2z"></path><path id="kity_path_152" fill="white" stroke="none" d="M627,381H621V380h6L627,381L627,381zM627,379H621V378h6V379zM627,377H621V376h6V377zM626.5,383H620V374h8v7.5M627,384l2,-2V373H619v11"></path></g></g><g id="kity_g_12"><path id="kity_path_13" fill="none" stroke="none" d="M525.5,378.5h0v0h0z"></path></g><g id="kity_g_14"><path id="kity_path_15" fill="none" stroke="none" d="M525.5,378.5h0v0h0z"></path><path id="kity_path_16" fill="none" stroke="none"></path></g><g id="minder_node2"><g id="node_expander5" style="cursor: pointer;"><path id="kity_path_196" fill="white" stroke="gray" d="M774.5,109.5A6,6,0,1,1,762.5,109.5A6,6,0,1,1,774.5,109.5"></path><path id="kity_path_197" fill="none" stroke="gray" d="M764,109.5L773,109.5"></path></g><path id="node_outline6" fill="rgb(238, 243, 246)" stroke="rgb(115, 161, 191)" d="M778.5,96.5h118a3,3,0,0,1,3,3v20a3,3,0,0,1,-3,3h-118a3,3,0,0,1,-3,-3v-20a3,3,0,0,1,3,-3z" stroke-width="1"></path><g id="node_text6" fill="black"><text id="kity_text_99" text-rendering="inherit" font-size="14" dy=".8em" y="102.5" x="795.5">编程基础知识</text></g></g><g id="minder_node3"><g id="node_expander1" display="none" style="cursor: pointer;"><path id="kity_path_184" fill="white" stroke="gray" d="M939.5,31.5A6,6,0,1,1,927.5,31.5A6,6,0,1,1,939.5,31.5"></path><path id="kity_path_185" fill="none" stroke="gray"></path></g><path id="node_outline2" fill="none" stroke="none" d="M944.5,20.5h23a5,5,0,0,1,5,5v12a5,5,0,0,1,-5,5h-23a5,5,0,0,1,-5,-5v-12a5,5,0,0,1,5,-5z"></path><g id="node_text2" fill="black"><text id="kity_text_91" text-rendering="inherit" font-size="12" dy=".8em" y="25.5" x="949.5">IO</text></g></g><g id="minder_node4"><g id="node_expander2" display="none" style="cursor: pointer;"><path id="kity_path_187" fill="white" stroke="gray" d="M939.5,83.5A6,6,0,1,1,927.5,83.5A6,6,0,1,1,939.5,83.5"></path><path id="kity_path_188" fill="none" stroke="gray"></path></g><path id="node_outline3" fill="none" stroke="none" d="M944.5,72.5h46a5,5,0,0,1,5,5v12a5,5,0,0,1,-5,5h-46a5,5,0,0,1,-5,-5v-12a5,5,0,0,1,5,-5z"></path><g id="node_text3" fill="black"><text id="kity_text_93" text-rendering="inherit" font-size="12" dy=".8em" y="77.5" x="949.5">多线程</text></g></g><g id="minder_node5"><g id="node_expander3" display="none" style="cursor: pointer;"><path id="kity_path_190" fill="white" stroke="gray" d="M939.5,135.5A6,6,0,1,1,927.5,135.5A6,6,0,1,1,939.5,135.5"></path><path id="kity_path_191" fill="none" stroke="gray"></path></g><path id="node_outline4" fill="none" stroke="none" d="M944.5,124.5h34a5,5,0,0,1,5,5v12a5,5,0,0,1,-5,5h-34a5,5,0,0,1,-5,-5v-12a5,5,0,0,1,5,-5z"></path><g id="node_text4" fill="black"><text id="kity_text_95" text-rendering="inherit" font-size="12" dy=".8em" y="129.5" x="949.5">集合</text></g></g><g id="minder_node6"><g id="node_expander4" display="none" style="cursor: pointer;"><path id="kity_path_193" fill="white" stroke="gray" d="M939.5,187.5A6,6,0,1,1,927.5,187.5A6,6,0,1,1,939.5,187.5"></path><path id="kity_path_194" fill="none" stroke="gray"></path></g><path id="node_outline5" fill="none" stroke="none" d="M944.5,176.5h46a5,5,0,0,1,5,5v12a5,5,0,0,1,-5,5h-46a5,5,0,0,1,-5,-5v-12a5,5,0,0,1,5,-5z"></path><g id="node_text5" fill="black"><text id="kity_text_97" text-rendering="inherit" font-size="12" dy=".8em" y="181.5" x="949.5">数据库</text></g></g><g id="minder_node7"><g id="node_expander11" style="cursor: pointer;"><path id="kity_path_214" fill="white" stroke="gray" d="M774.5,353.5A6,6,0,1,1,762.5,353.5A6,6,0,1,1,774.5,353.5"></path><path id="kity_path_215" fill="none" stroke="gray" d="M764,353.5L773,353.5"></path></g><path id="node_outline12" fill="rgb(238, 243, 246)" stroke="rgb(115, 161, 191)" d="M778.5,340.5h118a3,3,0,0,1,3,3v20a3,3,0,0,1,-3,3h-118a3,3,0,0,1,-3,-3v-20a3,3,0,0,1,3,-3z" stroke-width="1"></path><g id="node_text12" fill="black"><text id="kity_text_111" text-rendering="inherit" font-size="14" dy=".8em" y="346.5" x="795.5">框架架构知识</text></g></g><g id="minder_node8"><g id="node_expander6" display="none" style="cursor: pointer;"><path id="kity_path_199" fill="white" stroke="gray" d="M939.5,249.5A6,6,0,1,1,927.5,249.5A6,6,0,1,1,939.5,249.5"></path><path id="kity_path_200" fill="none" stroke="gray"></path></g><path id="node_outline7" fill="none" stroke="none" d="M944.5,238.5h46a5,5,0,0,1,5,5v12a5,5,0,0,1,-5,5h-46a5,5,0,0,1,-5,-5v-12a5,5,0,0,1,5,-5z"></path><g id="node_text7" fill="black"><text id="kity_text_101" text-rendering="inherit" font-size="12" dy=".8em" y="243.5" x="949.5">分布式</text></g></g><g id="minder_node9"><g id="node_expander7" display="none" style="cursor: pointer;"><path id="kity_path_202" fill="white" stroke="gray" d="M939.5,301.5A6,6,0,1,1,927.5,301.5A6,6,0,1,1,939.5,301.5"></path><path id="kity_path_203" fill="none" stroke="gray"></path></g><path id="node_outline8" fill="none" stroke="none" d="M944.5,290.5h34a5,5,0,0,1,5,5v12a5,5,0,0,1,-5,5h-34a5,5,0,0,1,-5,-5v-12a5,5,0,0,1,5,-5z"></path><g id="node_text8" fill="black"><text id="kity_text_103" text-rendering="inherit" font-size="12" dy=".8em" y="295.5" x="949.5">缓存</text></g></g><g id="minder_node10"><g id="node_expander8" display="none" style="cursor: pointer;"><path id="kity_path_205" fill="white" stroke="gray" d="M939.5,353.5A6,6,0,1,1,927.5,353.5A6,6,0,1,1,939.5,353.5"></path><path id="kity_path_206" fill="none" stroke="gray"></path></g><path id="node_outline9" fill="none" stroke="none" d="M944.5,342.5h34a5,5,0,0,1,5,5v12a5,5,0,0,1,-5,5h-34a5,5,0,0,1,-5,-5v-12a5,5,0,0,1,5,-5z"></path><g id="node_text9" fill="black"><text id="kity_text_105" text-rendering="inherit" font-size="12" dy=".8em" y="347.5" x="949.5">消息</text></g></g><g id="minder_node11"><g id="node_expander9" display="none" style="cursor: pointer;"><path id="kity_path_208" fill="white" stroke="gray" d="M939.5,405.5A6,6,0,1,1,927.5,405.5A6,6,0,1,1,939.5,405.5"></path><path id="kity_path_209" fill="none" stroke="gray"></path></g><path id="node_outline10" fill="none" stroke="none" d="M944.5,394.5h34a5,5,0,0,1,5,5v12a5,5,0,0,1,-5,5h-34a5,5,0,0,1,-5,-5v-12a5,5,0,0,1,5,-5z"></path><g id="node_text10" fill="black"><text id="kity_text_107" text-rendering="inherit" font-size="12" dy=".8em" y="399.5" x="949.5">搜索</text></g></g><g id="minder_node12"><g id="node_expander10" display="none" style="cursor: pointer;"><path id="kity_path_211" fill="white" stroke="gray" d="M939.5,457.5A6,6,0,1,1,927.5,457.5A6,6,0,1,1,939.5,457.5"></path><path id="kity_path_212" fill="none" stroke="gray"></path></g><path id="node_outline11" fill="none" stroke="none" d="M944.5,446.5h58a5,5,0,0,1,5,5v12a5,5,0,0,1,-5,5h-58a5,5,0,0,1,-5,-5v-12a5,5,0,0,1,5,-5z"></path><g id="node_text11" fill="black"><text id="kity_text_109" text-rendering="inherit" font-size="12" dy=".8em" y="451.5" x="949.5">数据分析</text></g></g><g id="minder_node13"><g id="node_expander18" style="cursor: pointer;"><path id="kity_path_235" fill="white" stroke="gray" d="M774.5,649.5A6,6,0,1,1,762.5,649.5A6,6,0,1,1,774.5,649.5"></path><path id="kity_path_236" fill="none" stroke="gray" d="M764,649.5L773,649.5"></path></g><path id="node_outline19" fill="rgb(238, 243, 246)" stroke="rgb(115, 161, 191)" d="M778.5,636.5h90a3,3,0,0,1,3,3v20a3,3,0,0,1,-3,3h-90a3,3,0,0,1,-3,-3v-20a3,3,0,0,1,3,-3z" stroke-width="1"></path><g id="node_text19" fill="black"><text id="kity_text_125" text-rendering="inherit" font-size="14" dy=".8em" y="642.5" x="795.5">设计模式</text></g></g><g id="minder_node14"><g id="node_expander15" style="cursor: pointer;"><path id="kity_path_226" fill="white" stroke="gray" d="M911.5,571.5A6,6,0,1,1,899.5,571.5A6,6,0,1,1,911.5,571.5"></path><path id="kity_path_227" fill="none" stroke="gray" d="M901,571.5L910,571.5"></path></g><path id="node_outline16" fill="none" stroke="none" d="M916.5,560.5h46a5,5,0,0,1,5,5v12a5,5,0,0,1,-5,5h-46a5,5,0,0,1,-5,-5v-12a5,5,0,0,1,5,-5z"></path><g id="node_text16" fill="black"><text id="kity_text_119" text-rendering="inherit" font-size="12" dy=".8em" y="565.5" x="921.5">创建型</text></g></g><g id="minder_node15"><g id="node_expander12" display="none" style="cursor: pointer;"><path id="kity_path_217" fill="white" stroke="gray" d="M1007.5,519.5A6,6,0,1,1,995.5,519.5A6,6,0,1,1,1007.5,519.5"></path><path id="kity_path_218" fill="none" stroke="gray"></path></g><path id="node_outline13" fill="none" stroke="none" d="M1012.5,508.5h82a5,5,0,0,1,5,5v12a5,5,0,0,1,-5,5h-82a5,5,0,0,1,-5,-5v-12a5,5,0,0,1,5,-5z"></path><g id="node_text13" fill="black"><text id="kity_text_113" text-rendering="inherit" font-size="12" dy=".8em" y="513.5" x="1017.5">抽象工厂模式</text></g></g><g id="minder_node16"><g id="node_expander13" display="none" style="cursor: pointer;"><path id="kity_path_220" fill="white" stroke="gray" d="M1007.5,571.5A6,6,0,1,1,995.5,571.5A6,6,0,1,1,1007.5,571.5"></path><path id="kity_path_221" fill="none" stroke="gray"></path></g><path id="node_outline14" fill="none" stroke="none" d="M1012.5,560.5h82a5,5,0,0,1,5,5v12a5,5,0,0,1,-5,5h-82a5,5,0,0,1,-5,-5v-12a5,5,0,0,1,5,-5z"></path><g id="node_text14" fill="black"><text id="kity_text_115" text-rendering="inherit" font-size="12" dy=".8em" y="565.5" x="1017.5">工厂方法模式</text></g></g><g id="minder_node17"><g id="node_expander14" display="none" style="cursor: pointer;"><path id="kity_path_223" fill="white" stroke="gray" d="M1007.5,623.5A6,6,0,1,1,995.5,623.5A6,6,0,1,1,1007.5,623.5"></path><path id="kity_path_224" fill="none" stroke="gray"></path></g><path id="node_outline15" fill="none" stroke="none" d="M1012.5,612.5h119a5,5,0,0,1,5,5v12a5,5,0,0,1,-5,5h-119a5,5,0,0,1,-5,-5v-12a5,5,0,0,1,5,-5z"></path><g id="node_text15" fill="black"><text id="kity_text_117" text-rendering="inherit" font-size="12" dy=".8em" y="617.5" x="1017.5">生成器模式(builder)</text></g></g><g id="minder_node18"><g id="node_expander16" display="none" style="cursor: pointer;"><path id="kity_path_229" fill="white" stroke="gray" d="M911.5,675.5A6,6,0,1,1,899.5,675.5A6,6,0,1,1,911.5,675.5"></path><path id="kity_path_230" fill="none" stroke="gray"></path></g><path id="node_outline17" fill="none" stroke="none" d="M916.5,664.5h46a5,5,0,0,1,5,5v12a5,5,0,0,1,-5,5h-46a5,5,0,0,1,-5,-5v-12a5,5,0,0,1,5,-5z"></path><g id="node_text17" fill="black"><text id="kity_text_121" text-rendering="inherit" font-size="12" dy=".8em" y="669.5" x="921.5">结构型</text></g></g><g id="minder_node19"><g id="node_expander17" display="none" style="cursor: pointer;"><path id="kity_path_232" fill="white" stroke="gray" d="M911.5,727.5A6,6,0,1,1,899.5,727.5A6,6,0,1,1,911.5,727.5"></path><path id="kity_path_233" fill="none" stroke="gray"></path></g><path id="node_outline18" fill="none" stroke="none" d="M916.5,716.5h46a5,5,0,0,1,5,5v12a5,5,0,0,1,-5,5h-46a5,5,0,0,1,-5,-5v-12a5,5,0,0,1,5,-5z"></path><g id="node_text18" fill="black"><text id="kity_text_123" text-rendering="inherit" font-size="12" dy=".8em" y="721.5" x="921.5">行为性</text></g></g><g id="minder_node20"><g id="node_expander19" display="none" style="cursor: pointer;"><path id="kity_path_238" fill="white" stroke="gray" d="M394.5,212.5A6,6,0,1,1,382.5,212.5A6,6,0,1,1,394.5,212.5"></path><path id="kity_path_239" fill="none" stroke="gray"></path></g><path id="node_outline20" fill="rgb(238, 243, 246)" stroke="rgb(115, 161, 191)" d="M302.5,199.5h76a3,3,0,0,1,3,3v20a3,3,0,0,1,-3,3h-76a3,3,0,0,1,-3,-3v-20a3,3,0,0,1,3,-3z" stroke-width="1"></path><g id="node_text20" fill="black"><text id="kity_text_127" text-rendering="inherit" font-size="14" dy=".8em" y="205.5" x="319.5">加分项</text></g></g><g id="minder_node21"><g id="node_expander26" style="cursor: pointer;"><path id="kity_path_259" fill="white" stroke="gray" d="M394.5,380.5A6,6,0,1,1,382.5,380.5A6,6,0,1,1,394.5,380.5"></path><path id="kity_path_260" fill="none" stroke="gray" d="M384,380.5L393,380.5"></path></g><path id="node_outline27" fill="rgb(238, 243, 246)" stroke="rgb(115, 161, 191)" d="M288.5,367.5h90a3,3,0,0,1,3,3v20a3,3,0,0,1,-3,3h-90a3,3,0,0,1,-3,-3v-20a3,3,0,0,1,3,-3z" stroke-width="1"></path><g id="node_text27" fill="black"><text id="kity_text_141" text-rendering="inherit" font-size="14" dy=".8em" y="373.5" x="305.5">工作经验</text></g></g><g id="minder_node22"><g id="node_expander23" style="cursor: pointer;"><path id="kity_path_250" fill="white" stroke="gray" d="M257.5,328.5A6,6,0,1,1,245.5,328.5A6,6,0,1,1,257.5,328.5"></path><path id="kity_path_251" fill="none" stroke="gray" d="M247,328.5L256,328.5"></path></g><path id="node_outline24" fill="none" stroke="none" d="M158.5,317.5h82a5,5,0,0,1,5,5v12a5,5,0,0,1,-5,5h-82a5,5,0,0,1,-5,-5v-12a5,5,0,0,1,5,-5z"></path><g id="node_text24" fill="black"><text id="kity_text_135" text-rendering="inherit" font-size="12" dy=".8em" y="322.5" x="163.5">物流快递行业</text></g></g><g id="minder_node23"><g id="node_expander20" display="none" style="cursor: pointer;"><path id="kity_path_241" fill="white" stroke="gray" d="M125.5,276.5A6,6,0,1,1,113.5,276.5A6,6,0,1,1,125.5,276.5"></path><path id="kity_path_242" fill="none" stroke="gray"></path></g><path id="node_outline21" fill="none" stroke="none" d="M50.5,265.5h58a5,5,0,0,1,5,5v12a5,5,0,0,1,-5,5h-58a5,5,0,0,1,-5,-5v-12a5,5,0,0,1,5,-5z"></path><g id="node_text21" fill="black"><text id="kity_text_129" text-rendering="inherit" font-size="12" dy=".8em" y="270.5" x="55.5">基干系统</text></g></g><g id="minder_node24"><g id="node_expander21" display="none" style="cursor: pointer;"><path id="kity_path_244" fill="white" stroke="gray" d="M125.5,328.5A6,6,0,1,1,113.5,328.5A6,6,0,1,1,125.5,328.5"></path><path id="kity_path_245" fill="none" stroke="gray"></path></g><path id="node_outline22" fill="none" stroke="none" d="M50.5,317.5h58a5,5,0,0,1,5,5v12a5,5,0,0,1,-5,5h-58a5,5,0,0,1,-5,-5v-12a5,5,0,0,1,5,-5z"></path><g id="node_text22" fill="black"><text id="kity_text_131" text-rendering="inherit" font-size="12" dy=".8em" y="322.5" x="55.5">派送系统</text></g></g><g id="minder_node25"><g id="node_expander22" display="none" style="cursor: pointer;"><path id="kity_path_247" fill="white" stroke="gray" d="M125.5,380.5A6,6,0,1,1,113.5,380.5A6,6,0,1,1,125.5,380.5"></path><path id="kity_path_248" fill="none" stroke="gray"></path></g><path id="node_outline23" fill="none" stroke="none" d="M50.5,369.5h58a5,5,0,0,1,5,5v12a5,5,0,0,1,-5,5h-58a5,5,0,0,1,-5,-5v-12a5,5,0,0,1,5,-5z"></path><g id="node_text23" fill="black"><text id="kity_text_133" text-rendering="inherit" font-size="12" dy=".8em" y="374.5" x="55.5">仓储系统</text></g></g><g id="minder_node26"><g id="node_expander25" style="cursor: pointer;"><path id="kity_path_256" fill="white" stroke="gray" d="M257.5,432.5A6,6,0,1,1,245.5,432.5A6,6,0,1,1,257.5,432.5"></path><path id="kity_path_257" fill="none" stroke="gray" d="M247,432.5L256,432.5"></path></g><path id="node_outline26" fill="none" stroke="none" d="M158.5,421.5h82a5,5,0,0,1,5,5v12a5,5,0,0,1,-5,5h-82a5,5,0,0,1,-5,-5v-12a5,5,0,0,1,5,-5z"></path><g id="node_text26" fill="black"><text id="kity_text_139" text-rendering="inherit" font-size="12" dy=".8em" y="426.5" x="163.5">零售电商行业</text></g></g><g id="minder_node27"><g id="node_expander24" display="none" style="cursor: pointer;"><path id="kity_path_253" fill="white" stroke="gray" d="M125.5,432.5A6,6,0,1,1,113.5,432.5A6,6,0,1,1,125.5,432.5"></path><path id="kity_path_254" fill="none" stroke="gray"></path></g><path id="node_outline25" fill="none" stroke="none" d="M25.5,421.5h83a5,5,0,0,1,5,5v12a5,5,0,0,1,-5,5h-83a5,5,0,0,1,-5,-5v-12a5,5,0,0,1,5,-5z"></path><g id="node_text25" fill="black"><text id="kity_text_137" text-rendering="inherit" font-size="12" dy=".8em" y="426.5" x="30.5">app开发经验</text></g></g><g id="minder_node28"><g id="node_expander30" style="cursor: pointer;"><path id="kity_path_271" fill="white" stroke="gray" d="M394.5,546.5A6,6,0,1,1,382.5,546.5A6,6,0,1,1,394.5,546.5"></path><path id="kity_path_272" fill="none" stroke="gray" d="M384,546.5L393,546.5"></path></g><path id="node_outline31" fill="rgb(238, 243, 246)" stroke="rgb(115, 161, 191)" d="M302.5,533.5h76a3,3,0,0,1,3,3v20a3,3,0,0,1,-3,3h-76a3,3,0,0,1,-3,-3v-20a3,3,0,0,1,3,-3z" stroke-width="1"></path><g id="node_text31" fill="black"><text id="kity_text_149" text-rendering="inherit" font-size="14" dy=".8em" y="539.5" x="319.5">软实力</text></g></g><g id="minder_node29"><g id="node_expander27" display="none" style="cursor: pointer;"><path id="kity_path_262" fill="white" stroke="gray" d="M271.5,494.5A6,6,0,1,1,259.5,494.5A6,6,0,1,1,271.5,494.5"></path><path id="kity_path_263" fill="none" stroke="gray"></path></g><path id="node_outline28" fill="none" stroke="none" d="M196.5,483.5h58a5,5,0,0,1,5,5v12a5,5,0,0,1,-5,5h-58a5,5,0,0,1,-5,-5v-12a5,5,0,0,1,5,-5z"></path><g id="node_text28" fill="black"><text id="kity_text_143" text-rendering="inherit" font-size="12" dy=".8em" y="488.5" x="201.5">学习能力</text></g></g><g id="minder_node30"><g id="node_expander28" display="none" style="cursor: pointer;"><path id="kity_path_265" fill="white" stroke="gray" d="M271.5,546.5A6,6,0,1,1,259.5,546.5A6,6,0,1,1,271.5,546.5"></path><path id="kity_path_266" fill="none" stroke="gray"></path></g><path id="node_outline29" fill="none" stroke="none" d="M196.5,535.5h58a5,5,0,0,1,5,5v12a5,5,0,0,1,-5,5h-58a5,5,0,0,1,-5,-5v-12a5,5,0,0,1,5,-5z"></path><g id="node_text29" fill="black"><text id="kity_text_145" text-rendering="inherit" font-size="12" dy=".8em" y="540.5" x="201.5">适应能力</text></g></g><g id="minder_node31"><g id="node_expander29" display="none" style="cursor: pointer;"><path id="kity_path_268" fill="white" stroke="gray" d="M271.5,598.5A6,6,0,1,1,259.5,598.5A6,6,0,1,1,271.5,598.5"></path><path id="kity_path_269" fill="none" stroke="gray"></path></g><path id="node_outline30" fill="none" stroke="none" d="M83.5,587.5h171a5,5,0,0,1,5,5v12a5,5,0,0,1,-5,5h-171a5,5,0,0,1,-5,-5v-12a5,5,0,0,1,5,-5z"></path><g id="node_text30" fill="black"><text id="kity_text_147" text-rendering="inherit" font-size="12" dy=".8em" y="592.5" x="88.5">抽象能力/独立分析和解决问题</text></g></g></g></g></svg>